<svg width="46" height="46" viewBox="0 0 46 46" fill="none" xmlns="http://www.w3.org/2000/svg">
<path d="M22.7002 3.7832C17.7441 3.7832 13.7148 7.81244 13.7148 12.7686C13.7148 17.6302 17.5171 21.5648 22.4732 21.7351C22.6246 21.7162 22.7759 21.7162 22.8894 21.7351C22.9272 21.7351 22.9462 21.7351 22.984 21.7351C23.0029 21.7351 23.0029 21.7351 23.0218 21.7351C27.8645 21.5648 31.6667 17.6302 31.6856 12.7686C31.6856 7.81244 27.6564 3.7832 22.7002 3.7832Z" fill="white"/>
<path d="M32.3098 26.7668C27.032 23.2483 18.425 23.2483 13.1094 26.7668C10.707 28.3747 9.38281 30.5501 9.38281 32.8769C9.38281 35.2036 10.707 37.3601 13.0905 38.9491C15.7388 40.7273 19.2195 41.6164 22.7001 41.6164C26.1808 41.6164 29.6614 40.7273 32.3098 38.9491C34.6933 37.3412 36.0174 35.1847 36.0174 32.839C35.9985 30.5123 34.6933 28.3558 32.3098 26.7668Z" fill="white"/>
</svg>
